<svg width="46" height="43" viewBox="0 0 46 43" fill="none" xmlns="http://www.w3.org/2000/svg">
<path d="M13 2H45.5V7H13V2ZM4.25 8.25C3.25544 8.25 2.30161 7.85491 1.59835 7.15165C0.895088 6.44839 0.5 5.49456 0.5 4.5C0.5 3.50544 0.895088 2.55161 1.59835 1.84835C2.30161 1.14509 3.25544 0.75 4.25 0.75C5.24456 0.75 6.19839 1.14509 6.90165 1.84835C7.60491 2.55161 8 3.50544 8 4.5C8 5.49456 7.60491 6.44839 6.90165 7.15165C6.19839 7.85491 5.24456 8.25 4.25 8.25ZM4.25 25.75C3.25544 25.75 2.30161 25.3549 1.59835 24.6517C0.895088 23.9484 0.5 22.9946 0.5 22C0.5 21.0054 0.895088 20.0516 1.59835 19.3483C2.30161 18.6451 3.25544 18.25 4.25 18.25C5.24456 18.25 6.19839 18.6451 6.90165 19.3483C7.60491 20.0516 8 21.0054 8 22C8 22.9946 7.60491 23.9484 6.90165 24.6517C6.19839 25.3549 5.24456 25.75 4.25 25.75ZM4.25 43C3.25544 43 2.30161 42.6049 1.59835 41.9017C0.895088 41.1984 0.5 40.2446 0.5 39.25C0.5 38.2554 0.895088 37.3016 1.59835 36.5984C2.30161 35.8951 3.25544 35.5 4.25 35.5C5.24456 35.5 6.19839 35.8951 6.90165 36.5984C7.60491 37.3016 8 38.2554 8 39.25C8 40.2446 7.60491 41.1984 6.90165 41.9017C6.19839 42.6049 5.24456 43 4.25 43ZM13 19.5H45.5V24.5H13V19.5ZM13 37H45.5V42H13V37Z" fill="#FF4D00"/>
</svg>
